<svg xmlns="http://www.w3.org/2000/svg" style="position:absolute;width:0;height:0;overflow:hidden" aria-hidden="true">
<symbol id="ic-default" viewBox="0 0 48 48" fill="none"><circle cx="24" cy="24" r="15" fill="var(--ic-2,#F1E5FF)" stroke="var(--ic-1,#7000FF)" stroke-width="1.8"/><circle cx="24" cy="24" r="5" fill="var(--ic-3,#5200CC)" opacity="0.15"/><circle cx="24" cy="24" r="1.5" fill="var(--ic-1,#7000FF)"/></symbol>
<symbol id="ic-tool-default" viewBox="0 0 48 48" fill="none"><rect x="8" y="8" width="32" height="32" rx="6" fill="var(--ic-2,#F1E5FF)" stroke="var(--ic-1,#7000FF)" stroke-width="1.8"/><path d="M16 24h16M24 16v16" stroke="var(--ic-3,#5200CC)" stroke-width="1.2" stroke-linecap="round" opacity="0.4"/><circle cx="24" cy="24" r="3" fill="var(--ic-1,#7000FF)" opacity="0.15"/></symbol>
<symbol id="ic-action" viewBox="0 0 48 48" fill="none"><circle cx="24" cy="24" r="16" fill="var(--ic-2,#F1E5FF)" stroke="var(--ic-1,#7000FF)" stroke-width="1.8"/><path d="M20.5 16.5c0-1 .8-1.5 1.6-1l9.8 6.5c.8.5.8 1.5 0 2l-9.8 6.5c-.8.5-1.6 0-1.6-1z" fill="var(--ic-1,#7000FF)"/></symbol>
<symbol id="ic-wallet" viewBox="0 0 48 48" fill="none"><rect x="6" y="12" width="36" height="24" rx="4" fill="var(--ic-2,#F1E5FF)" stroke="var(--ic-1,#7000FF)" stroke-width="1.8"/><path d="M6 20h36" stroke="var(--ic-1,#7000FF)" stroke-width="1.5"/><circle cx="34" cy="28" r="2.5" fill="var(--ic-3,#5200CC)" opacity="0.4"/><path d="M12 16V12a4 4 0 0 1 4-4h16a4 4 0 0 1 4 4v4" stroke="var(--ic-3,#5200CC)" stroke-width="1.2" stroke-linecap="round" opacity="0.3"/></symbol>
<symbol id="ic-lightbulb" viewBox="0 0 48 48" fill="none"><path d="M24 6a14 14 0 0 0-8 25.4V36h16v-4.6A14 14 0 0 0 24 6z" fill="var(--ic-2,#F1E5FF)" stroke="var(--ic-1,#7000FF)" stroke-width="1.8" stroke-linejoin="round"/><path d="M18 36h12M20 42h8" stroke="var(--ic-1,#7000FF)" stroke-width="1.8" stroke-linecap="round"/><circle cx="24" cy="20" r="4" fill="var(--ic-3,#5200CC)" opacity="0.15"/></symbol>
<symbol id="ic-roi" viewBox="0 0 48 48" fill="none"><rect x="6" y="28" width="9" height="14" rx="2" fill="var(--ic-2,#F1E5FF)" stroke="var(--ic-1,#7000FF)" stroke-width="1.8"/><rect x="19.5" y="20" width="9" height="22" rx="2" fill="var(--ic-2,#F1E5FF)" stroke="var(--ic-1,#7000FF)" stroke-width="1.8"/><rect x="33" y="11" width="9" height="31" rx="2" fill="var(--ic-2,#F1E5FF)" stroke="var(--ic-1,#7000FF)" stroke-width="1.8"/><path d="M8.5 24l15-10 15-6" stroke="var(--ic-3,#5200CC)" stroke-width="1.5" stroke-linecap="round" opacity="0.6"/><circle cx="8.5" cy="24" r="2.5" fill="var(--ic-1,#7000FF)"/><circle cx="23.5" cy="14" r="2.5" fill="var(--ic-1,#7000FF)"/><circle cx="38.5" cy="8" r="2.5" fill="var(--ic-1,#7000FF)"/></symbol>
<symbol id="ic-compare" viewBox="0 0 48 48" fill="none"><rect x="6" y="18" width="14" height="20" rx="3" fill="var(--ic-2,#F1E5FF)" stroke="var(--ic-1,#7000FF)" stroke-width="1.8"/><rect x="28" y="12" width="14" height="26" rx="3" fill="var(--ic-2,#F1E5FF)" stroke="var(--ic-1,#7000FF)" stroke-width="1.8"/><path d="M10 24h6M10 28h6M10 32h6" stroke="var(--ic-3,#5200CC)" stroke-width="1" stroke-linecap="round" opacity="0.3"/><path d="M32 18h6M32 22h6M32 26h6M32 30h6" stroke="var(--ic-3,#5200CC)" stroke-width="1" stroke-linecap="round" opacity="0.3"/><path d="M20 28h8" stroke="var(--ic-1,#7000FF)" stroke-width="1.2" stroke-dasharray="2 2" opacity="0.4"/><circle cx="24" cy="28" r="2.5" fill="var(--ic-2,#F1E5FF)" stroke="var(--ic-1,#7000FF)" stroke-width="1.2"/><path d="M22.5 28h3" stroke="var(--ic-1,#7000FF)" stroke-width="1" stroke-linecap="round"/></symbol>
<symbol id="ic-points" viewBox="0 0 48 48" fill="none"><polygon points="24,3 29.5,18 45,18 32.5,28.5 37,43.5 24,34 11,43.5 15.5,28.5 3,18 18.5,18" fill="var(--ic-2,#F1E5FF)" stroke="var(--ic-1,#7000FF)" stroke-width="1.8" stroke-linejoin="round"/><circle cx="24" cy="23" r="6.5" fill="none" stroke="var(--ic-3,#5200CC)" stroke-width="1" opacity="0.3"/><circle cx="24" cy="23" r="2.5" fill="var(--ic-1,#7000FF)" opacity="0.6"/></symbol>
<symbol id="ic-push-email" viewBox="0 0 48 48" fill="none"><rect x="5" y="8" width="17" height="30" rx="3.5" fill="var(--ic-2,#F1E5FF)" stroke="var(--ic-1,#7000FF)" stroke-width="1.8"/><rect x="8.5" y="13" width="10" height="16" rx="1.5" fill="none" stroke="var(--ic-3,#5200CC)" stroke-width="0.8" opacity="0.25"/><circle cx="13.5" cy="33" r="1.8" fill="var(--ic-3,#5200CC)" opacity="0.2"/><rect x="26" y="14" width="18" height="14" rx="2.5" fill="var(--ic-2,#F1E5FF)" stroke="var(--ic-1,#7000FF)" stroke-width="1.8"/><path d="M26 16.5l9 6.5 9-6.5" stroke="var(--ic-1,#7000FF)" stroke-width="1.2" stroke-linecap="round" stroke-linejoin="round"/><circle cx="39" cy="12" r="4.5" fill="var(--ic-1,#7000FF)"/><text x="39" y="14.8" fill="white" font-size="7" font-weight="bold" font-family="sans-serif" text-anchor="middle">!</text></symbol>
</svg>